<svg width="21" height="21" viewBox="0 0 21 21" fill="none" xmlns="http://www.w3.org/2000/svg">
<g clip-path="url(#clip0_899_1230)">
<path fill-rule="evenodd" clip-rule="evenodd" d="M7.50546 11.1279C7.34439 10.9668 7.25391 10.7483 7.25391 10.5205C7.25391 10.2926 7.34439 10.0741 7.50546 9.91303L12.3657 5.05279C12.4449 4.97074 12.5398 4.90528 12.6446 4.86026C12.7494 4.81523 12.8621 4.79153 12.9762 4.79054C13.0903 4.78955 13.2034 4.81128 13.309 4.85448C13.4146 4.89768 13.5105 4.96148 13.5912 5.04215C13.6719 5.12281 13.7357 5.21874 13.7789 5.32433C13.8221 5.42991 13.8438 5.54305 13.8428 5.65712C13.8418 5.7712 13.8181 5.88394 13.7731 5.98876C13.728 6.09358 13.6626 6.18839 13.5805 6.26764L9.32772 10.5205L13.5805 14.7733C13.737 14.9353 13.8236 15.1523 13.8217 15.3776C13.8197 15.6029 13.7294 15.8184 13.5701 15.9777C13.4108 16.1369 13.1953 16.2273 12.97 16.2293C12.7448 16.2312 12.5277 16.1446 12.3657 15.9881L7.50546 11.1279Z" fill="#EC3A4C"/>
</g>
<defs>
<clipPath id="clip0_899_1230">
<rect width="20.6197" height="20.6197" fill="white" transform="translate(0.378906 0.211128)"/>
</clipPath>
</defs>
</svg>
