<svg width="24" height="16" viewBox="0 0 24 16" fill="none" xmlns="http://www.w3.org/2000/svg">
<path fill-rule="evenodd" clip-rule="evenodd" d="M19.695 7.62526L16.74 10.5803C16.6295 10.6833 16.5408 10.8075 16.4793 10.9455C16.4178 11.0834 16.3848 11.2324 16.3821 11.3835C16.3794 11.5345 16.4072 11.6846 16.4638 11.8247C16.5204 11.9647 16.6046 12.092 16.7114 12.1988C16.8183 12.3056 16.9455 12.3899 17.0856 12.4464C17.2257 12.503 17.3757 12.5308 17.5268 12.5281C17.6778 12.5255 17.8268 12.4924 17.9648 12.4309C18.1028 12.3694 18.227 12.2808 18.33 12.1703L23.205 7.29526L24 6.50026L23.205 5.70526L18.33 0.830258C18.1167 0.631538 17.8347 0.523353 17.5432 0.528496C17.2518 0.533638 16.9737 0.651706 16.7676 0.857825C16.5614 1.06394 16.4434 1.34202 16.4382 1.63347C16.4331 1.92493 16.5413 2.207 16.74 2.42026L19.695 5.37526H4.875C3.58207 5.37526 2.34209 5.88887 1.42785 6.80311C0.513615 7.71735 0 8.95733 0 10.2503C0 11.5432 0.513615 12.7832 1.42785 13.6974C2.34209 14.6116 3.58207 15.1253 4.875 15.1253H7.875C8.17337 15.1253 8.45952 15.0067 8.67049 14.7958C8.88147 14.5848 9 14.2986 9 14.0003C9 13.7019 8.88147 13.4157 8.67049 13.2048C8.45952 12.9938 8.17337 12.8753 7.875 12.8753H4.875C4.17881 12.8753 3.51113 12.5987 3.01884 12.1064C2.52656 11.6141 2.25 10.9465 2.25 10.2503C2.25 9.55406 2.52656 8.88638 3.01884 8.3941C3.51113 7.90182 4.17881 7.62526 4.875 7.62526H19.695Z" fill="#222222"/>
</svg>
