<svg width="20" height="20" viewBox="0 0 20 20" fill="none" xmlns="http://www.w3.org/2000/svg">
<path fill-rule="evenodd" clip-rule="evenodd" d="M3.73203 1.33301H3.66536C3.36003 1.33301 3.09736 1.33301 2.86536 1.38767C2.50621 1.47349 2.17783 1.65707 1.91661 1.91806C1.65538 2.17905 1.47151 2.50727 1.38536 2.86634C1.33203 3.09834 1.33203 3.35967 1.33203 3.66634V6.99967C1.33203 7.30501 1.33203 7.56767 1.3867 7.79967C1.47252 8.15883 1.65609 8.48721 1.91708 8.74843C2.17807 9.00966 2.50629 9.19353 2.86536 9.27967C3.09736 9.33301 3.3587 9.33301 3.66536 9.33301H6.9987C7.30403 9.33301 7.5667 9.33301 7.7987 9.27834C8.15785 9.19252 8.48623 9.00895 8.74746 8.74796C9.00868 8.48696 9.19255 8.15875 9.2787 7.79967C9.33203 7.56767 9.33203 7.30634 9.33203 6.99967V3.66634C9.33203 3.36101 9.33203 3.09834 9.27736 2.86634C9.19154 2.50719 9.00797 2.17881 8.74698 1.91758C8.48599 1.65636 8.15777 1.47248 7.7987 1.38634C7.5667 1.33301 7.30536 1.33301 6.9987 1.33301H3.73203ZM3.17603 2.68501C3.23336 2.67167 3.3227 2.66634 3.73203 2.66634H6.93203C7.3427 2.66634 7.4307 2.67034 7.48803 2.68501C7.6078 2.71365 7.7173 2.77491 7.80438 2.86199C7.89146 2.94907 7.95272 3.05857 7.98136 3.17834C7.9947 3.23434 7.9987 3.32234 7.9987 3.73301V6.93301C7.9987 7.34367 7.9947 7.43167 7.98003 7.48901C7.95139 7.60878 7.89013 7.71828 7.80305 7.80536C7.71597 7.89244 7.60647 7.9537 7.4867 7.98234C7.43203 7.99434 7.34403 7.99967 6.93203 7.99967H3.73203C3.32136 7.99967 3.23336 7.99567 3.17603 7.98101C3.05626 7.95237 2.94676 7.89111 2.85968 7.80403C2.7726 7.71695 2.71134 7.60745 2.6827 7.48767C2.6707 7.43301 2.66536 7.34501 2.66536 6.93301V3.73301C2.66536 3.32234 2.66936 3.23434 2.68403 3.17701C2.71267 3.05723 2.77393 2.94774 2.86101 2.86066C2.94809 2.77357 3.05759 2.71232 3.17736 2.68367L3.17603 2.68501ZM13.0654 1.33301H12.9987C12.6934 1.33301 12.4307 1.33301 12.1987 1.38767C11.8395 1.47349 11.5112 1.65707 11.2499 1.91806C10.9887 2.17905 10.8048 2.50727 10.7187 2.86634C10.6654 3.09834 10.6654 3.35967 10.6654 3.66634V6.99967C10.6654 7.30501 10.6654 7.56767 10.72 7.79967C10.8059 8.15883 10.9894 8.48721 11.2504 8.74843C11.5114 9.00966 11.8396 9.19353 12.1987 9.27967C12.4307 9.33301 12.692 9.33301 12.9987 9.33301H16.332C16.6374 9.33301 16.9 9.33301 17.132 9.27834C17.4912 9.19252 17.8196 9.00895 18.0808 8.74796C18.342 8.48696 18.5259 8.15875 18.612 7.79967C18.6654 7.56767 18.6654 7.30634 18.6654 6.99967V3.66634C18.6654 3.36101 18.6654 3.09834 18.6107 2.86634C18.5249 2.50719 18.3413 2.17881 18.0803 1.91758C17.8193 1.65636 17.4911 1.47248 17.132 1.38634C16.9 1.33301 16.6387 1.33301 16.332 1.33301H13.0654ZM12.5094 2.68501C12.5667 2.67167 12.656 2.66634 13.0654 2.66634H16.2654C16.676 2.66634 16.764 2.67034 16.8214 2.68501C16.9411 2.71365 17.0506 2.77491 17.1377 2.86199C17.2248 2.94907 17.2861 3.05857 17.3147 3.17834C17.328 3.23434 17.332 3.32234 17.332 3.73301V6.93301C17.332 7.34367 17.3267 7.43167 17.3134 7.48901C17.2847 7.60878 17.2235 7.71828 17.1364 7.80536C17.0493 7.89244 16.9398 7.9537 16.82 7.98234C16.764 7.99567 16.676 7.99967 16.2654 7.99967H13.0654C12.6547 7.99967 12.5667 7.99567 12.5094 7.98101C12.3896 7.95237 12.2801 7.89111 12.193 7.80403C12.1059 7.71695 12.0447 7.60745 12.016 7.48767C12.004 7.43301 11.9987 7.34501 11.9987 6.93301V3.73301C11.9987 3.32234 12.0027 3.23434 12.0174 3.17701C12.046 3.05723 12.1073 2.94774 12.1943 2.86066C12.2814 2.77357 12.3909 2.71232 12.5107 2.68367L12.5094 2.68501ZM3.66536 10.6663H6.9987C7.30403 10.6663 7.5667 10.6663 7.7987 10.721C8.15785 10.8068 8.48623 10.9904 8.74746 11.2514C9.00868 11.5124 9.19255 11.8406 9.2787 12.1997C9.33203 12.4317 9.33203 12.693 9.33203 12.9997V16.333C9.33203 16.6383 9.33203 16.901 9.27736 17.133C9.19154 17.4922 9.00797 17.8205 8.74698 18.0818C8.48599 18.343 8.15777 18.5269 7.7987 18.613C7.5667 18.6663 7.30536 18.6663 6.9987 18.6663H3.66536C3.36003 18.6663 3.09736 18.6663 2.86536 18.6117C2.50621 18.5259 2.17783 18.3423 1.91661 18.0813C1.65538 17.8203 1.47151 17.4921 1.38536 17.133C1.33203 16.901 1.33203 16.6397 1.33203 16.333V12.9997C1.33203 12.6943 1.33203 12.4317 1.3867 12.1997C1.47252 11.8405 1.65609 11.5121 1.91708 11.2509C2.17807 10.9897 2.50629 10.8058 2.86536 10.7197C3.09736 10.6663 3.3587 10.6663 3.66536 10.6663ZM3.73203 11.9997C3.32136 11.9997 3.23336 12.0037 3.17603 12.0183C3.05626 12.047 2.94676 12.1082 2.85968 12.1953C2.7726 12.2824 2.71134 12.3919 2.6827 12.5117C2.6707 12.5663 2.66536 12.6543 2.66536 13.0663V16.2663C2.66536 16.677 2.66936 16.765 2.68403 16.8223C2.71267 16.9421 2.77393 17.0516 2.86101 17.1387C2.94809 17.2258 3.05759 17.287 3.17736 17.3157C3.23336 17.329 3.32136 17.333 3.73203 17.333H6.93203C7.3427 17.333 7.4307 17.3277 7.48803 17.3143C7.6078 17.2857 7.7173 17.2244 7.80438 17.1374C7.89146 17.0503 7.95272 16.9408 7.98136 16.821C7.9947 16.765 7.9987 16.677 7.9987 16.2663V13.0663C7.9987 12.6557 7.9947 12.5677 7.98003 12.5103C7.95139 12.3906 7.89013 12.2811 7.80305 12.194C7.71597 12.1069 7.60647 12.0456 7.4867 12.017C7.43203 12.005 7.34403 11.9997 6.93203 11.9997H3.73203ZM13.0654 10.6663H12.9987C12.6934 10.6663 12.4307 10.6663 12.1987 10.721C11.8395 10.8068 11.5112 10.9904 11.2499 11.2514C10.9887 11.5124 10.8048 11.8406 10.7187 12.1997C10.6654 12.4317 10.6654 12.693 10.6654 12.9997V16.333C10.6654 16.6383 10.6654 16.901 10.72 17.133C10.8059 17.4922 10.9894 17.8205 11.2504 18.0818C11.5114 18.343 11.8396 18.5269 12.1987 18.613C12.4307 18.6677 12.6934 18.6677 12.9987 18.6677H16.332C16.6374 18.6677 16.9 18.6677 17.132 18.613C17.4909 18.527 17.819 18.3433 18.08 18.0823C18.341 17.8213 18.5247 17.4932 18.6107 17.1343C18.6654 16.9023 18.6654 16.6397 18.6654 16.3343V12.9997C18.6654 12.6943 18.6654 12.4317 18.6107 12.1997C18.5249 11.8405 18.3413 11.5121 18.0803 11.2509C17.8193 10.9897 17.4911 10.8058 17.132 10.7197C16.9 10.6663 16.6387 10.6663 16.332 10.6663H13.0654ZM12.5094 12.0183C12.5667 12.005 12.656 11.9997 13.0654 11.9997H16.2654C16.676 11.9997 16.764 12.0037 16.8214 12.0183C16.9411 12.047 17.0506 12.1082 17.1377 12.1953C17.2248 12.2824 17.2861 12.3919 17.3147 12.5117C17.328 12.5677 17.332 12.6557 17.332 13.0663V16.2663C17.332 16.677 17.3267 16.765 17.3134 16.8223C17.2847 16.9421 17.2235 17.0516 17.1364 17.1387C17.0493 17.2258 16.9398 17.287 16.82 17.3157C16.764 17.329 16.676 17.333 16.2654 17.333H13.0654C12.6547 17.333 12.5667 17.3277 12.5094 17.3143C12.3896 17.2857 12.2801 17.2244 12.193 17.1374C12.1059 17.0503 12.0447 16.9408 12.016 16.821C12.004 16.7663 11.9987 16.6783 11.9987 16.2663V13.0663C11.9987 12.6557 12.0027 12.5677 12.0174 12.5103C12.046 12.3906 12.1073 12.2811 12.1943 12.194C12.2814 12.1069 12.3909 12.0456 12.5107 12.017L12.5094 12.0183Z" fill="white"/>
</svg>
