<svg width="18" height="21" viewBox="0 0 18 21" fill="none" xmlns="http://www.w3.org/2000/svg">
<path d="M15.8727 20.9978C15.4963 20.9978 15.1363 20.893 14.7927 20.6833L9.40907 17.2943C9.28194 17.217 9.13813 17.1763 8.9918 17.1763C8.84547 17.1763 8.70166 17.217 8.57453 17.2943L3.1909 20.6833C2.52 21.1026 1.73454 21.1026 1.06363 20.7008C0.392727 20.299 0 19.5479 0 18.7268V2.62036C0 1.17043 1.09636 0 2.45454 0H15.5454C16.9036 0 18 1.17043 18 2.62036V18.7268C18.0015 19.024 17.948 19.3186 17.8427 19.5937C17.7373 19.8689 17.5822 20.1191 17.3861 20.33C17.19 20.541 16.9568 20.7086 16.6999 20.8232C16.443 20.9378 16.1675 20.9971 15.8891 20.9978H15.8727ZM8.99998 15.4077C9.42544 15.4077 9.86726 15.53 10.2436 15.7745L15.6272 19.1635C15.84 19.3033 16.0363 19.2159 16.1182 19.1635C16.2 19.1111 16.3636 18.9888 16.3636 18.7093V2.62036C16.3636 2.13122 16.0036 1.7469 15.5454 1.7469H2.45454C1.99636 1.7469 1.63636 2.13122 1.63636 2.62036V18.7268C1.63636 19.0063 1.8 19.1286 1.88182 19.181C1.96363 19.2334 2.14363 19.3208 2.37272 19.181L7.75635 15.792C8.14908 15.5474 8.57453 15.4252 8.99998 15.4252V15.4077Z" fill="black"/>
</svg>
