<svg width="14" height="16" viewBox="0 0 14 16" fill="none" xmlns="http://www.w3.org/2000/svg">
<path d="M12.3454 15.9983C12.0527 15.9983 11.7727 15.9185 11.5054 15.7587L7.31817 13.1766C7.21929 13.1177 7.10744 13.0867 6.99362 13.0867C6.87981 13.0867 6.76796 13.1177 6.66908 13.1766L2.48181 15.7587C1.96 16.0782 1.34909 16.0782 0.827271 15.772C0.305454 15.4659 0 14.8936 0 14.268V1.99646C0 0.891753 0.852726 0 1.90909 0H12.0909C13.1473 0 14 0.891753 14 1.99646V14.268C14.0011 14.4945 13.9596 14.719 13.8776 14.9286C13.7957 15.1382 13.675 15.3288 13.5225 15.4896C13.37 15.6503 13.1886 15.778 12.9888 15.8653C12.789 15.9526 12.5747 15.9978 12.3582 15.9983H12.3454ZM6.99999 11.7392C7.3309 11.7392 7.67453 11.8324 7.96726 12.0187L12.1545 14.6008C12.32 14.7073 12.4727 14.6407 12.5363 14.6008C12.6 14.5609 12.7273 14.4677 12.7273 14.2547V1.99646C12.7273 1.62379 12.4473 1.33097 12.0909 1.33097H1.90909C1.55272 1.33097 1.27273 1.62379 1.27273 1.99646V14.268C1.27273 14.481 1.4 14.5742 1.46363 14.6141C1.52727 14.654 1.66727 14.7206 1.84545 14.6141L6.03272 12.032C6.33817 11.8457 6.66908 11.7525 6.99999 11.7525V11.7392Z" fill="white"/>
</svg>
