<svg width="20" height="18" viewBox="0 0 20 18" fill="none" xmlns="http://www.w3.org/2000/svg">
<path d="M14.1104 6.47084C13.8873 4.7949 13.0359 3.26628 11.7285 2.19426C10.4211 1.12224 8.75527 0.586861 7.06811 0.696452C5.38094 0.806042 3.7984 1.55242 2.64066 2.78456C1.48293 4.01671 0.836449 5.64262 0.832031 7.33334C0.832031 8.91 1.37953 10.3592 2.29536 11.5008C2.9687 12.3417 3.33203 13.2708 3.33203 14.255V17.3333H10.832L10.8329 14.8333H12.4987C12.9407 14.8333 13.3646 14.6577 13.6772 14.3452C13.9898 14.0326 14.1654 13.6087 14.1654 13.1667V10.7258L15.7987 10.0258C16.0837 9.90417 16.1087 9.61417 15.9854 9.42L14.1104 6.47V6.47084ZM2.4987 7.33334C2.49742 6.06269 2.97996 4.83922 3.84826 3.91153C4.71656 2.98385 5.90549 2.42155 7.17344 2.33889C8.4414 2.25624 9.69327 2.65942 10.6747 3.46653C11.656 4.27364 12.2933 5.42411 12.457 6.68417L12.5045 7.0525L13.7904 9.07334L12.4987 9.62667V13.1667H9.16703L9.16536 15.6667H4.9987V14.255C4.9987 12.8892 4.5062 11.595 3.59453 10.4583C2.88287 9.57251 2.49613 8.46962 2.4987 7.33334ZM17.627 14.085L16.2395 13.16C17.0625 11.9289 17.5008 10.4809 17.4987 9C17.5013 7.51894 17.0633 6.07058 16.2404 4.83917L17.627 3.91417C18.633 5.41927 19.1685 7.18965 19.1654 9C19.1654 10.8817 18.5987 12.63 17.627 14.085Z" fill="#F8F8F8"/>
</svg>
